<svg width="381" height="50" viewBox="0 0 381 50" fill="none" xmlns="http://www.w3.org/2000/svg">
<g opacity="0.8">
<rect opacity="0.3" x="0.195312" y="0.583984" width="380" height="49" rx="10" fill="#767676"/>
<path opacity="0.65" d="M156.842 20.192V31.584H154.618L149.45 25.12V31.584H146.65V20.192H148.842L154.01 26.624V20.192H156.842ZM162.836 31.712C161.929 31.712 161.14 31.5413 160.468 31.2C159.796 30.8587 159.278 30.368 158.916 29.728C158.553 29.088 158.372 28.336 158.372 27.472C158.372 26.608 158.553 25.856 158.916 25.216C159.278 24.576 159.796 24.0853 160.468 23.744C161.14 23.4027 161.929 23.232 162.836 23.232C163.732 23.232 164.51 23.408 165.172 23.76C165.844 24.1013 166.361 24.592 166.724 25.232C167.086 25.8613 167.268 26.608 167.268 27.472C167.268 28.336 167.086 29.088 166.724 29.728C166.361 30.3573 165.844 30.848 165.172 31.2C164.51 31.5413 163.732 31.712 162.836 31.712ZM162.836 29.552C163.881 29.552 164.404 28.8587 164.404 27.472C164.404 26.768 164.27 26.2507 164.004 25.92C163.748 25.5787 163.358 25.408 162.836 25.408C162.302 25.408 161.902 25.5787 161.636 25.92C161.369 26.2507 161.236 26.768 161.236 27.472C161.236 28.1867 161.369 28.7147 161.636 29.056C161.902 29.3867 162.302 29.552 162.836 29.552ZM171.353 28.608V30.48C171.353 31.1733 171.225 31.8027 170.969 32.368C170.724 32.9333 170.297 33.5093 169.689 34.096L168.617 33.232C169.204 32.6453 169.561 32.096 169.689 31.584H168.329V28.608H171.353ZM180.288 22.624H176.896V20.192H186.72V22.624H183.328V31.584H180.288V22.624ZM193.211 23.232C194.171 23.232 194.885 23.5253 195.355 24.112C195.835 24.688 196.075 25.5627 196.075 26.736V31.584H193.179V26.864C193.179 26.3627 193.093 26.0053 192.923 25.792C192.752 25.568 192.485 25.456 192.123 25.456C191.685 25.456 191.333 25.6053 191.067 25.904C190.8 26.192 190.667 26.576 190.667 27.056V31.584H187.771V19.808H190.667V24.448C191.296 23.6373 192.144 23.232 193.211 23.232ZM206.315 23.456V31.584H203.467V30.48C203.233 30.864 202.891 31.168 202.443 31.392C201.995 31.6053 201.505 31.712 200.971 31.712C200.278 31.712 199.659 31.5413 199.115 31.2C198.571 30.8587 198.145 30.3733 197.835 29.744C197.537 29.104 197.387 28.368 197.387 27.536C197.387 26.6933 197.542 25.9467 197.851 25.296C198.161 24.6453 198.587 24.1387 199.131 23.776C199.675 23.4133 200.289 23.232 200.971 23.232C201.505 23.232 201.99 23.3493 202.427 23.584C202.875 23.808 203.222 24.112 203.467 24.496V23.456H206.315ZM201.867 29.552C202.379 29.552 202.774 29.376 203.051 29.024C203.329 28.672 203.467 28.1653 203.467 27.504C203.467 26.832 203.329 26.32 203.051 25.968C202.774 25.6053 202.379 25.424 201.867 25.424C201.366 25.424 200.971 25.6107 200.683 25.984C200.395 26.3467 200.251 26.864 200.251 27.536C200.251 28.1867 200.39 28.688 200.667 29.04C200.945 29.3813 201.345 29.552 201.867 29.552ZM213.476 23.232C214.436 23.232 215.151 23.5253 215.62 24.112C216.1 24.688 216.34 25.5627 216.34 26.736V31.584H213.444V26.864C213.444 26.3627 213.359 26.0053 213.188 25.792C213.018 25.568 212.751 25.456 212.388 25.456C211.951 25.456 211.599 25.6053 211.332 25.904C211.066 26.192 210.932 26.576 210.932 27.056V31.584H208.036V25.792C208.036 24.9173 207.994 24.1387 207.908 23.456H210.628L210.772 24.656C211.082 24.1973 211.466 23.8453 211.924 23.6C212.383 23.3547 212.9 23.232 213.476 23.232ZM223.685 31.584L220.917 28.08V31.584H218.021V19.808H220.917V26.848L223.637 23.472H227.061L223.861 27.36L227.189 31.584H223.685ZM230.801 31.712C229.179 31.712 227.899 31.3867 226.961 30.736L227.697 28.768C228.134 29.0667 228.63 29.3013 229.185 29.472C229.739 29.632 230.283 29.712 230.817 29.712C231.147 29.712 231.403 29.664 231.585 29.568C231.766 29.472 231.857 29.3387 231.857 29.168C231.857 29.0187 231.787 28.9013 231.649 28.816C231.521 28.72 231.27 28.6347 230.897 28.56L229.585 28.256C228.753 28.0853 228.15 27.8187 227.777 27.456C227.414 27.0827 227.233 26.5707 227.233 25.92C227.233 25.3973 227.387 24.9333 227.697 24.528C228.006 24.1227 228.433 23.808 228.977 23.584C229.531 23.3493 230.166 23.232 230.881 23.232C231.467 23.232 232.043 23.3173 232.609 23.488C233.174 23.6587 233.702 23.8987 234.193 24.208L233.425 26.128C232.998 25.8507 232.561 25.6373 232.113 25.488C231.665 25.3387 231.243 25.264 230.849 25.264C230.529 25.264 230.278 25.3173 230.097 25.424C229.915 25.52 229.825 25.664 229.825 25.856C229.825 25.9733 229.878 26.0693 229.985 26.144C230.091 26.208 230.294 26.2773 230.593 26.352L231.953 26.656C232.817 26.8587 233.435 27.1573 233.809 27.552C234.193 27.936 234.385 28.464 234.385 29.136C234.385 29.936 234.065 30.5653 233.425 31.024C232.795 31.4827 231.921 31.712 230.801 31.712Z" fill="#353535"/>
</g>
</svg>
